HIERARCHY
ROOT hip
{
  OFFSET 0 0 0
  CHANNELS 6 Xposition Yposition Zposition Zrotation Yrotation Xrotation
  JOINT abdomen
  {
    OFFSET 0 20.6881 -0.73152
    CHANNELS 3 Zrotation Xrotation Yrotation
    JOINT chest
    {
      OFFSET 0 11.7043 -0.48768
      CHANNELS 3 Zrotation Xrotation Yrotation
      JOINT neck
      {
        OFFSET 0 22.1894 -2.19456
        CHANNELS 3 Zrotation Xrotation Yrotation
        JOINT head
        {
          OFFSET -0.24384 7.07133 1.2192
          CHANNELS 3 Zrotation Xrotation Yrotation
          JOINT leftEye
          {
            OFFSET 4.14528 8.04674 8.04672
            CHANNELS 3 Zrotation Xrotation Yrotation
            End Site
            {
              OFFSET 1 0 0
            }
          }
          JOINT rightEye
          {
            OFFSET -3.6576 8.04674 8.04672
            CHANNELS 3 Zrotation Xrotation Yrotation
            End Site
            {
              OFFSET 1 0 0
            }
          }
        }
      }
      JOINT rCollar
      {
        OFFSET -2.68224 19.2634 -4.8768
        CHANNELS 3 Zrotation Xrotation Yrotation
        JOINT rShldr
        {
          OFFSET -8.77824 -1.95073 1.46304
          CHANNELS 3 Zrotation Xrotation Yrotation
          JOINT rForeArm
          {
            OFFSET -28.1742 -1.7115 0.48768
            CHANNELS 3 Zrotation Xrotation Yrotation
            JOINT rHand
            {
              OFFSET -22.5879 0.773209 7.07136
              CHANNELS 3 Zrotation Xrotation Yrotation
              JOINT rThumb1
              {
                OFFSET -1.2192 -0.487915 3.41376
                CHANNELS 3 Zrotation Xrotation Yrotation
                JOINT rThumb2
                {
                  OFFSET -3.37035 -0.52449 3.41376
                  CHANNELS 3 Zrotation Xrotation Yrotation
                  End Site
                  {
                    OFFSET -1.78271 -1.18214 1.43049
                  }
                }
              }
              JOINT rIndex1
              {
                OFFSET -7.75947 0.938293 5.60832
                CHANNELS 3 Zrotation Xrotation Yrotation
                JOINT rIndex2
                {
                  OFFSET -2.54057 -0.884171 1.56538
                  CHANNELS 3 Zrotation Xrotation Yrotation
                  End Site
                  {
                    OFFSET -1.62519 -0.234802 1.16502
                  }
                }
              }
              JOINT rMid1
              {
                OFFSET -8.24714 1.18213 3.41376
                CHANNELS 3 Zrotation Xrotation Yrotation
                JOINT rMid2
                {
                  OFFSET -3.10165 -0.590103 1.0647
                  CHANNELS 3 Zrotation Xrotation Yrotation
                  End Site
                  {
                    OFFSET -2.48547 -0.328903 0.83742
                  }
                }
              }
              JOINT rRing1
              {
                OFFSET -8.82822 0.546677 1.51678
                CHANNELS 3 Zrotation Xrotation Yrotation
                JOINT rRing2
                {
                  OFFSET -2.60934 -0.819778 -0.0198488
                  CHANNELS 3 Zrotation Xrotation Yrotation
                  End Site
                  {
                    OFFSET -2.33842 -0.294052 0.168128
                  }
                }
              }
              JOINT rPinky1
              {
                OFFSET -8.27202 -0.0477905 -0.4584
                CHANNELS 3 Zrotation Xrotation Yrotation
                JOINT rPinky2
                {
                  OFFSET -1.82734 -0.647385 -0.700984
                  CHANNELS 3 Zrotation Xrotation Yrotation
                  End Site
                  {
                    OFFSET -1.69225 -0.51767 -0.607171
                  }
                }
              }
            }
          }
        }
      }
      JOINT lCollar
      {
        OFFSET 2.68224 19.2634 -4.8768
        CHANNELS 3 Zrotation Xrotation Yrotation
        JOINT lShldr
        {
          OFFSET 8.77824 -1.95073 1.46304
          CHANNELS 3 Zrotation Xrotation Yrotation
          JOINT lForeArm
          {
            OFFSET 28.1742 -1.7115 0.48768
            CHANNELS 3 Zrotation Xrotation Yrotation
            JOINT lHand
            {
              OFFSET 22.5879 0.773209 7.07136
              CHANNELS 3 Zrotation Xrotation Yrotation
              JOINT lThumb1
              {
                OFFSET 1.2192 -0.487915 3.41376
                CHANNELS 3 Zrotation Xrotation Yrotation
                JOINT lThumb2
                {
                  OFFSET 3.37035 -0.52449 3.41376
                  CHANNELS 3 Zrotation Xrotation Yrotation
                  End Site
                  {
                    OFFSET 1.78271 -1.18214 1.43049
                  }
                }
              }
              JOINT lIndex1
              {
                OFFSET 7.75947 0.938293 5.60832
                CHANNELS 3 Zrotation Xrotation Yrotation
                JOINT lIndex2
                {
                  OFFSET 2.54057 -0.884171 1.56538
                  CHANNELS 3 Zrotation Xrotation Yrotation
                  End Site
                  {
                    OFFSET 1.62519 -0.234802 1.16502
                  }
                }
              }
              JOINT lMid1
              {
                OFFSET 8.24714 1.18213 3.41376
                CHANNELS 3 Zrotation Xrotation Yrotation
                JOINT lMid2
                {
                  OFFSET 3.10165 -0.590103 1.0647
                  CHANNELS 3 Zrotation Xrotation Yrotation
                  End Site
                  {
                    OFFSET 2.48547 -0.328903 0.83742
                  }
                }
              }
              JOINT lRing1
              {
                OFFSET 8.82822 0.546677 1.51678
                CHANNELS 3 Zrotation Xrotation Yrotation
                JOINT lRing2
                {
                  OFFSET 2.60934 -0.819778 -0.0198488
                  CHANNELS 3 Zrotation Xrotation Yrotation
                  End Site
                  {
                    OFFSET 2.33842 -0.294052 0.168128
                  }
                }
              }
              JOINT lPinky1
              {
                OFFSET 8.27202 -0.0477905 -0.4584
                CHANNELS 3 Zrotation Xrotation Yrotation
                JOINT lPinky2
                {
                  OFFSET 1.82734 -0.647385 -0.700984
                  CHANNELS 3 Zrotation Xrotation Yrotation
                  End Site
                  {
                    OFFSET 1.69225 -0.51767 -0.607171
                  }
                }
              }
            }
          }
        }
      }
    }
  }
  JOINT rButtock
  {
    OFFSET -8.77824 4.35084 1.2192
    CHANNELS 3 Zrotation Xrotation Yrotation
    JOINT rThigh
    {
      OFFSET 0 -1.70687 -2.19456
      CHANNELS 3 Zrotation Xrotation Yrotation
      JOINT rShin
      {
        OFFSET 0 -36.8199 0.73152
        CHANNELS 3 Zrotation Xrotation Yrotation
        JOINT rFoot
        {
          OFFSET 0.73152 -45.1104 -5.12064
          CHANNELS 3 Zrotation Xrotation Yrotation
          End Site
          {
            OFFSET -1.1221 -3.69964 12.103
          }
        }
      }
    }
  }
  JOINT lButtock
  {
    OFFSET 8.77824 4.35084 1.2192
    CHANNELS 3 Zrotation Xrotation Yrotation
    JOINT lThigh
    {
      OFFSET 0 -1.70687 -2.19456
      CHANNELS 3 Zrotation Xrotation Yrotation
      JOINT lShin
      {
        OFFSET 0 -36.8199 0.73152
        CHANNELS 3 Zrotation Xrotation Yrotation
        JOINT lFoot
        {
          OFFSET -0.73152 -45.1104 -5.12064
          CHANNELS 3 Zrotation Xrotation Yrotation
          End Site
          {
            OFFSET 1.1221 -3.69964 12.103
          }
        }
      }
    }
  }
}
MOTION
Frames:	6
Frame Time:	0.00833333
73.3173 88.7282 206.143 -186.316 -184.837 -218.946 -2.74758 19.7787 -2.64167 1.72034 -4.10419 -0.845555 -3.9278 19.308 -8.74843 12.064 -69.416 -11.7304 -0.0 0.0 0.0 -0.0 0.0 0.0 5.74601e-14 2.46944e-13 -3.25635e-13 56.7131 47.0923 27.0357 -28.432 -35.6339 76.4051 -0.477272 19.2593 2.81449 -2.46913e-09 -2.60037e-09 1.16564e-09 -4.24152e-09 -4.42133e-09 2.04742e-09 -2.46911e-09 -2.60037e-09 1.16563e-09 7.73091 5.47488 0.417314 -2.46913e-09 -2.60037e-09 1.16564e-09 2.90554 0.965183 0.102902 -2.46913e-09 -2.60037e-09 1.16564e-09 10.2786 0.731801 0.0259123 -2.46913e-09 -2.60037e-09 1.16565e-09 2.22167 -0.733487 -0.20892 5.7225e-14 2.46936e-13 -3.25926e-13 -68.5699 40.5007 -20.4232 28.4386 -35.0506 -75.3587 1.50906 32.6138 -5.1587 2.24485e-09 -3.34916e-09 4.36908e-10 3.88118e-09 -5.69789e-09 7.01111e-10 2.24484e-09 -3.34916e-09 4.36919e-10 -7.73091 5.47488 -0.417314 2.24484e-09 -3.34917e-09 4.36898e-10 -2.90554 0.965183 -0.102902 2.24484e-09 -3.34916e-09 4.36902e-10 -10.2786 0.731801 -0.0259123 2.24485e-09 -3.34916e-09 4.36892e-10 -2.22167 -0.733487 0.20892 -2.03217e-16 0.0 -3.88251e-19 4.74627 -24.6238 -0.997648 -0.403528 42.881 0.82581 -3.97855 -12.6354 -10.6775 2.03217e-16 0.0 3.88251e-19 4.74936 -25.8185 5.07035 0.45408 46.1247 -0.8215 -4.57402 -18.7032 -13.1322
73.391 89.011 206.477 -186.235 -185.841 -218.648 -2.59426 19.2625 -2.79711 1.70394 -3.90464 -0.882223 -4.04874 20.0163 -9.03779 11.4993 -70.3564 -12.7579 -0.0 0.0 0.0 -0.0 0.0 0.0 4.47599e-14 2.83074e-13 -4.12528e-13 56.8865 47.6265 26.0007 -28.4322 -35.9225 76.8797 -0.466665 19.047 2.78114 -2.90209e-09 -2.95765e-09 1.4004e-09 -4.98512e-09 -5.02478e-09 2.4601e-09 -2.90208e-09 -2.95765e-09 1.40039e-09 7.73091 5.47488 0.417314 -2.90209e-09 -2.95765e-09 1.4004e-09 2.90554 0.965183 0.102902 -2.90209e-09 -2.95765e-09 1.4004e-09 10.2786 0.731801 0.0259123 -2.9021e-09 -2.95765e-09 1.4004e-09 2.22167 -0.733487 -0.20892 4.44975e-14 2.83064e-13 -4.12776e-13 -70.2768 40.8522 -18.6997 28.4334 -35.6486 -76.4221 1.59238 33.365 -5.31012 2.62429e-09 -3.82071e-09 4.49047e-10 4.53666e-09 -6.49842e-09 7.13259e-10 2.62429e-09 -3.82071e-09 4.49059e-10 -7.73091 5.47488 -0.417314 2.62429e-09 -3.82072e-09 4.49037e-10 -2.90554 0.965183 -0.102902 2.62429e-09 -3.82071e-09 4.49041e-10 -10.2786 0.731801 -0.0259123 2.6243e-09 -3.82071e-09 4.49031e-10 -2.22167 -0.733487 0.20892 -2.03217e-16 0.0 -3.88251e-19 4.98253 -24.571 -0.77254 -0.399213 42.6535 0.816023 -3.77845 -13.2621 -9.79202 2.03217e-16 0.0 3.88251e-19 4.95558 -26.0945 4.95975 0.453292 46.0715 -0.812496 -4.72685 -18.4353 -13.6573
73.159 89.3907 206.875 -187.036 -185.988 -218.612 -2.64124 19.1038 -3.15615 1.57604 -4.0242 -0.98838 -3.86811 20.5074 -9.2171 10.9436 -70.9876 -13.5328 -0.0 0.0 0.0 -0.0 0.0 0.0 -1.76198e-14 2.36906e-13 -4.5563e-13 57.5193 48.5624 24.8833 -28.4283 -36.235 77.4 -0.477712 19.2634 2.81522 -2.36898e-09 -2.28835e-09 1.05696e-09 -4.06963e-09 -3.88324e-09 1.86053e-09 -2.36897e-09 -2.28835e-09 1.05695e-09 7.73091 5.47488 0.417314 -2.36898e-09 -2.28835e-09 1.05696e-09 2.90554 0.965183 0.102902 -2.36898e-09 -2.28835e-09 1.05696e-09 10.2786 0.731801 0.0259123 -2.36898e-09 -2.28835e-09 1.05697e-09 2.22167 -0.733487 -0.20892 -1.78422e-14 2.36896e-13 -4.55827e-13 -71.3351 41.0961 -17.1514 28.424 -36.1079 -77.2233 1.65404 33.8994 -5.4197 2.15864e-09 -3.23773e-09 4.25378e-10 3.73368e-09 -5.5156e-09 6.84457e-10 2.15864e-09 -3.23773e-09 4.2539e-10 -7.73091 5.47488 -0.417314 2.15864e-09 -3.23774e-09 4.25372e-10 -2.90554 0.965183 -0.102902 2.15864e-09 -3.23773e-09 4.25374e-10 -10.2786 0.731801 -0.0259123 2.15865e-09 -3.23773e-09 4.25364e-10 -2.22167 -0.733487 0.20892 -2.03217e-16 0.0 -3.88251e-19 5.0794 -24.3712 -0.50612 -0.396871 42.4664 0.802332 -3.41783 -13.9898 -8.45724 2.03217e-16 0.0 3.88251e-19 5.0683 -26.0758 4.97309 0.450861 45.9877 -0.805966 -4.8531 -18.3083 -14.0497
73.0205 89.8831 207.229 -187.537 -186.37 -218.605 -2.77661 19.1526 -3.64808 1.37714 -4.33315 -1.13753 -3.50877 20.8842 -9.3318 10.401 -71.4529 -14.15 -0.0 0.0 0.0 -0.0 0.0 0.0 -1.14422e-13 1.40744e-13 -4.74459e-13 58.4496 49.7469 23.7059 -28.4207 -36.5548 77.9341 -0.503661 19.7545 2.89298 -1.25623e-09 -9.92328e-10 3.55929e-10 -2.15889e-09 -1.6762e-09 6.35313e-10 -1.25623e-09 -9.92324e-10 3.55918e-10 7.73091 5.47488 0.417314 -1.25624e-09 -9.92321e-10 3.55928e-10 2.90554 0.965183 0.102902 -1.25623e-09 -9.92321e-10 3.55931e-10 10.2786 0.731801 0.0259123 -1.25623e-09 -9.9232e-10 3.55936e-10 2.22167 -0.733487 -0.20892 -1.14558e-13 1.40734e-13 -4.74589e-13 -71.931 41.3073 -15.733 28.4151 -36.5049 -77.8886 1.69594 34.264 -5.49464 1.18613e-09 -2.00756e-09 3.68023e-10 2.05585e-09 -3.43848e-09 6.10273e-10 1.18613e-09 -2.00756e-09 3.68034e-10 -7.73091 5.47488 -0.417314 1.18613e-09 -2.00757e-09 3.68023e-10 -2.90554 0.965183 -0.102902 1.18612e-09 -2.00756e-09 3.68022e-10 -10.2786 0.731801 -0.0259123 1.18614e-09 -2.00756e-09 3.68013e-10 -2.22167 -0.733487 0.20892 -2.03217e-16 0.0 -3.88251e-19 5.10823 -24.0972 -0.208712 -0.395943 42.3002 0.785136 -2.8982 -14.7883 -6.74643 2.03217e-16 0.0 3.88251e-19 5.15396 -25.9052 5.07679 0.447809 45.901 -0.801463 -4.96665 -18.2597 -14.3707
73.0646 90.2235 207.526 -187.294 -187.059 -218.342 -2.94872 19.2466 -4.12105 1.23335 -4.51384 -1.28544 -3.1411 21.1151 -9.4343 9.80208 -71.8906 -14.785 -0.0 0.0 0.0 -0.0 0.0 0.0 -2.03803e-13 4.25937e-14 -4.57526e-13 59.2605 50.863 22.6938 -28.4088 -36.8611 78.4529 -0.528698 20.2073 2.96526 -1.95281e-10 1.82062e-10 -2.92386e-10 -3.37406e-10 3.21383e-10 -4.98306e-10 -1.95277e-10 1.8207e-10 -2.92398e-10 7.73091 5.47488 0.417314 -1.95285e-10 1.82073e-10 -2.92386e-10 2.90554 0.965183 0.102902 -1.95277e-10 1.82073e-10 -2.92384e-10 10.2786 0.731801 0.0259123 -1.95278e-10 1.82074e-10 -2.92379e-10 2.22167 -0.733487 -0.20892 -2.03848e-13 4.25851e-14 -4.576e-13 -72.2527 41.4893 -14.6235 28.4051 -36.8704 -78.4857 1.72573 34.5256 -5.54843 3.01339e-10 -8.33032e-10 2.83371e-10 5.28586e-10 -1.45092e-09 4.86139e-10 3.01336e-10 -8.33033e-10 2.83381e-10 -7.73091 5.47488 -0.417314 3.01339e-10 -8.33034e-10 2.83377e-10 -2.90554 0.965183 -0.102902 3.0133e-10 -8.33031e-10 2.83372e-10 -10.2786 0.731801 -0.0259123 3.01341e-10 -8.3303e-10 2.83365e-10 -2.22167 -0.733487 0.20892 -2.03217e-16 0.0 -3.88251e-19 5.1464 -23.7688 0.133073 -0.395548 42.1288 0.763965 -2.25659 -15.5133 -4.83779 2.03217e-16 0.0 3.88251e-19 5.25648 -25.6665 5.20678 0.444253 45.8034 -0.797213 -5.08634 -18.2445 -14.6882
73.02 90.4925 207.882 -187.762 -187.814 -218.188 -3.11175 19.2254 -4.42126 1.27435 -4.24871 -1.38754 -2.93438 21.1681 -9.57741 9.03671 -72.4364 -15.6535 -0.0 0.0 0.0 -0.0 0.0 0.0 -2.43923e-13 -9.53817e-15 -3.93345e-13 59.4781 51.5946 22.11 -28.3939 -37.1347 78.9247 -0.534119 20.309 2.98145 1.82454e-10 4.86463e-10 -4.77662e-10 3.10304e-10 8.34533e-10 -8.23096e-10 1.82456e-10 4.86472e-10 -4.77675e-10 7.73091 5.47488 0.417314 1.82449e-10 4.86475e-10 -4.77662e-10 2.90554 0.965183 0.102902 1.82459e-10 4.86475e-10 -4.77661e-10 10.2786 0.731801 0.0259123 1.82458e-10 4.86475e-10 -4.77656e-10 2.22167 -0.733487 -0.20892 -2.4391e-13 -9.54516e-15 -3.93395e-13 -72.4873 41.6506 -14.0033 28.3886 -37.2306 -79.0879 1.75212 34.7514 -5.59533 9.88389e-11 -4.16956e-10 1.77809e-10 1.77339e-10 -7.36823e-10 3.07485e-10 9.88369e-11 -4.16956e-10 1.77818e-10 -7.73091 5.47488 -0.417314 9.88412e-11 -4.16955e-10 1.77818e-10 -2.90554 0.965183 -0.102902 9.88292e-11 -4.16955e-10 1.77811e-10 -10.2786 0.731801 -0.0259123 9.88403e-11 -4.16954e-10 1.77806e-10 -2.22167 -0.733487 0.20892 -2.03217e-16 0.0 -3.88251e-19 5.27119 -23.4057 0.532616 -0.394865 41.926 0.738394 -1.55821 -16.0225 -2.91625 2.03217e-16 0.0 3.88251e-19 5.42109 -25.4439 5.29949 0.440329 45.687 -0.791458 -5.22979 -18.2175 -15.0701
